<?xml version="1.0" standalone="no"?>
<!DOCTYPE svg PUBLIC "-//W3C//DTD SVG 20010904//EN"
 "http://www.w3.org/TR/2001/REC-SVG-20010904/DTD/svg10.dtd">
<svg version="1.0" xmlns="http://www.w3.org/2000/svg"
 width="902.000000pt" height="933.000000pt" viewBox="0 0 902.000000 933.000000"
 preserveAspectRatio="xMidYMid meet">

<g transform="translate(0.000000,933.000000) scale(0.100000,-0.100000)"
fill="#000000" stroke="none">
<path d="M1366 9299 c-244 -26 -478 -111 -687 -250 -130 -87 -315 -274 -402
-404 -74 -112 -143 -251 -181 -365 -29 -88 -66 -263 -66 -314 0 -20 -4 -36
-10 -36 -7 0 -10 -1110 -10 -3270 0 -1817 4 -3270 9 -3270 4 0 11 -31 15 -69
9 -100 58 -282 104 -389 204 -473 628 -807 1128 -892 118 -20 151 -20 3289
-17 l3170 2 97 23 c487 112 875 432 1070 884 46 107 95 289 104 389 4 38 11
69 15 69 5 0 9 1453 9 3270 0 2160 -3 3270 -10 3270 -6 0 -10 16 -10 36 0 20
-9 82 -21 137 -60 298 -193 543 -413 762 -225 225 -481 360 -796 421 -91 18
-220 19 -3210 20 -1713 1 -3151 -2 -3194 -7z m3102 -2910 l-3 -1521 -1528 -6
-1528 -5 4 929 c4 1031 -1 961 73 1184 160 481 583 839 1094 925 56 10 300 13
983 14 l907 1 -2 -1521z m1977 1506 c199 -32 418 -118 575 -226 76 -52 252
-219 342 -324 148 -174 249 -369 304 -589 25 -97 26 -119 35 -536 5 -239 8
-1090 7 -1890 -3 -1352 -5 -1462 -22 -1550 -111 -590 -559 -1033 -1145 -1135
-71 -13 -353 -15 -1925 -15 -2020 0 -1946 -2 -2142 60 -209 66 -385 174 -578
353 -277 258 -433 551 -475 892 -7 59 -11 393 -11 969 l0 879 1528 -6 1527 -7
5 -1492 5 -1491 40 0 40 0 5 1491 5 1492 1479 3 1479 2 0 45 0 45 -1479 2
-1479 3 -3 1520 -2 1520 897 0 c741 0 914 -3 988 -15z"/>
<path d="M2890 7064 c-72 -51 -78 -81 -79 -371 l-1 -252 -268 -3 c-268 -3
-269 -3 -305 -28 -87 -59 -89 -171 -5 -232 32 -22 40 -23 303 -28 l270 -5 5
-265 c5 -242 7 -268 25 -299 62 -106 197 -103 251 6 17 33 20 70 24 298 l5
260 255 0 c246 0 257 1 297 23 52 27 74 59 80 115 6 55 -25 103 -87 135 -42
21 -55 22 -297 22 l-253 0 0 243 c0 141 -5 258 -11 280 -6 22 -25 55 -43 74
-28 31 -40 37 -87 40 -41 3 -60 0 -79 -13z"/>
<path d="M5383 6428 c-17 -6 -46 -26 -65 -45 -29 -30 -33 -41 -33 -88 0 -64
22 -98 81 -129 38 -21 51 -21 709 -21 658 0 671 0 705 21 108 63 106 200 -4
253 -42 21 -54 21 -702 20 -418 -1 -671 -5 -691 -11z"/>
<path d="M6030 4048 c-168 -29 -228 -246 -100 -362 68 -61 154 -72 238 -30 41
20 60 38 83 78 27 45 30 58 27 118 -3 55 -9 75 -33 110 -50 70 -128 102 -215
86z"/>
<path d="M2405 3857 c-41 -41 -53 -92 -35 -150 10 -34 48 -78 191 -223 99 -99
179 -184 179 -190 0 -5 -77 -86 -171 -179 -172 -171 -208 -220 -209 -280 0
-71 65 -135 138 -135 65 0 104 29 284 208 l178 177 178 -177 c178 -179 218
-208 282 -208 49 0 97 25 116 62 21 40 22 114 1 154 -9 16 -95 108 -191 204
l-176 174 184 186 c165 167 184 190 195 233 15 63 1 117 -40 151 -25 21 -41
26 -85 26 -31 0 -65 -5 -77 -11 -12 -6 -104 -93 -204 -192 l-183 -182 -182
182 c-101 99 -193 186 -205 192 -12 6 -47 11 -78 11 -51 0 -60 -3 -90 -33z"/>
<path d="M5397 3438 c-77 -21 -131 -102 -113 -173 11 -42 62 -91 108 -104 32
-9 221 -11 704 -9 l660 3 36 25 c47 31 68 68 68 118 0 48 -32 98 -80 126 -34
21 -49 21 -690 23 -421 1 -669 -2 -693 -9z"/>
<path d="M6027 2960 c-93 -17 -167 -109 -167 -204 1 -183 211 -282 346 -164
100 88 99 243 -2 326 -21 18 -54 35 -74 38 -19 3 -42 7 -50 9 -8 1 -32 -1 -53
-5z"/>
</g>
</svg>
