<?xml version="1.0" standalone="no"?>
<!DOCTYPE svg PUBLIC "-//W3C//DTD SVG 20010904//EN"
 "http://www.w3.org/TR/2001/REC-SVG-20010904/DTD/svg10.dtd">
<svg version="1.0" xmlns="http://www.w3.org/2000/svg"
 width="933.000000pt" height="933.000000pt" viewBox="0 0 933.000000 933.000000"
 preserveAspectRatio="xMidYMid meet">
<metadata>
Created by potrace 1.14, written by Peter Selinger 2001-2017
</metadata>
<g transform="translate(0.000000,933.000000) scale(0.100000,-0.100000)"
fill="#000000" stroke="none">
<path d="M1548 9311 c-1 -5 -35 -12 -73 -15 -39 -3 -121 -20 -184 -36 -357
-94 -667 -315 -873 -623 -81 -120 -182 -348 -203 -455 -2 -12 -6 -26 -9 -30
-2 -4 -7 -25 -10 -47 -4 -22 -12 -65 -18 -95 -15 -70 -23 -6645 -9 -6635 6 3
9 -3 9 -12 -4 -108 66 -351 153 -524 101 -203 300 -431 484 -556 246 -166 542
-265 795 -264 36 0 60 -3 53 -7 -6 -4 1334 -7 2977 -7 1643 0 2986 3 2984 7
-5 8 17 5 34 -5 6 -5 12 -4 12 1 0 6 28 10 63 11 60 1 77 3 170 16 130 19 291
71 420 136 45 23 92 47 104 53 13 6 23 14 23 19 0 4 5 7 11 7 35 0 290 226
378 334 43 54 128 191 171 275 43 86 106 265 116 330 3 20 7 38 9 41 4 6 18
114 18 138 0 6 4 12 9 12 4 0 8 1473 8 3274 0 2614 -2 3275 -12 3279 -10 4
-10 6 0 6 6 1 12 6 12 12 0 5 -5 7 -11 4 -6 -4 -9 -1 -8 6 3 13 -5 79 -17 144
-10 56 -51 190 -83 269 -136 341 -417 636 -756 796 -147 69 -348 122 -497 133
-20 1 -34 5 -32 8 7 11 -51 7 -65 -5 -12 -8 -13 -8 -7 2 10 17 -95 17 -113 0
-11 -10 -13 -10 -7 0 10 17 -95 17 -113 0 -11 -10 -13 -10 -7 0 10 17 -95 17
-113 0 -11 -10 -13 -10 -7 0 10 17 -95 17 -113 0 -11 -10 -13 -10 -7 0 10 17
-95 17 -113 0 -11 -10 -13 -10 -7 0 5 9 -6 12 -46 12 -30 0 -60 -6 -67 -12
-11 -10 -13 -10 -7 0 5 9 -6 12 -46 12 -30 0 -60 -6 -67 -12 -11 -10 -13 -10
-7 0 10 17 -95 17 -113 0 -11 -10 -13 -10 -7 0 5 9 -6 12 -46 12 -30 0 -60 -6
-67 -12 -11 -10 -13 -10 -7 0 5 9 -6 12 -46 12 -30 0 -60 -6 -67 -12 -11 -10
-13 -10 -7 0 5 9 -6 12 -46 12 -30 0 -60 -6 -67 -12 -11 -10 -13 -10 -7 0 5 9
-6 12 -46 12 -30 0 -60 -6 -67 -12 -11 -10 -13 -10 -7 0 5 9 -6 12 -46 12 -30
0 -60 -6 -67 -12 -11 -10 -13 -10 -7 0 5 9 -6 12 -46 12 -30 0 -60 -6 -67 -12
-11 -10 -13 -10 -7 0 5 9 -6 12 -46 12 -30 0 -60 -6 -67 -12 -11 -10 -13 -10
-7 0 5 9 -6 12 -46 12 -30 0 -60 -6 -67 -12 -11 -10 -13 -10 -7 0 5 9 -6 12
-46 12 -30 0 -60 -6 -67 -12 -11 -10 -13 -10 -7 0 5 9 -6 12 -46 12 -30 0 -60
-6 -67 -12 -11 -10 -13 -10 -7 0 10 17 -95 17 -113 0 -11 -10 -13 -10 -7 0 5
9 -6 12 -46 12 -30 0 -60 -6 -67 -12 -11 -10 -13 -10 -7 0 5 9 -6 12 -46 12
-30 0 -60 -6 -67 -12 -11 -10 -13 -10 -7 0 5 9 -6 12 -46 12 -30 0 -60 -6 -67
-12 -11 -10 -13 -10 -7 0 5 9 -6 12 -46 12 -30 0 -60 -6 -67 -12 -11 -10 -13
-10 -7 0 5 9 -6 12 -46 12 -30 0 -60 -6 -67 -12 -11 -10 -13 -10 -7 0 5 9 -6
12 -46 12 -30 0 -60 -6 -67 -12 -11 -10 -13 -10 -7 0 5 9 -6 12 -46 12 -30 0
-60 -6 -67 -12 -11 -10 -13 -10 -7 0 5 9 -6 12 -46 12 -30 0 -60 -6 -67 -12
-11 -10 -13 -10 -7 0 5 9 -6 12 -46 12 -30 0 -60 -6 -67 -12 -11 -10 -13 -10
-7 0 5 9 -6 12 -46 12 -30 0 -60 -6 -67 -12 -11 -10 -13 -10 -7 0 5 9 -6 12
-46 12 -30 0 -60 -6 -67 -12 -11 -10 -13 -10 -7 0 5 9 -6 12 -46 12 -30 0 -60
-6 -67 -12 -11 -10 -13 -10 -7 0 5 9 -6 12 -46 12 -30 0 -60 -6 -67 -12 -11
-10 -13 -10 -7 0 5 9 -6 12 -46 12 -30 0 -60 -6 -67 -12 -11 -10 -13 -10 -7 0
5 9 -6 12 -46 12 -30 0 -60 -6 -67 -12 -11 -10 -13 -10 -7 0 5 9 -6 12 -46 12
-30 0 -60 -6 -67 -12 -11 -10 -13 -10 -7 0 5 9 -6 12 -46 12 -30 0 -60 -6 -67
-12 -11 -10 -13 -10 -7 0 5 9 -6 12 -46 12 -30 0 -60 -6 -67 -12 -11 -10 -13
-10 -7 0 5 9 -6 12 -46 12 -30 0 -60 -6 -67 -12 -11 -10 -13 -10 -7 0 5 9 -6
12 -46 12 -30 0 -60 -6 -67 -12 -11 -10 -13 -10 -7 0 5 9 -6 12 -46 12 -30 0
-60 -6 -67 -12 -11 -10 -13 -10 -7 0 5 9 -6 12 -46 12 -30 0 -60 -6 -67 -12
-11 -10 -13 -10 -7 0 5 9 -6 12 -46 12 -30 0 -60 -6 -67 -12 -11 -10 -13 -10
-7 0 5 9 -6 12 -46 12 -30 0 -60 -6 -67 -12 -11 -10 -13 -10 -7 0 5 9 -6 12
-46 12 -30 0 -60 -6 -67 -12 -11 -10 -13 -10 -7 0 5 9 -6 12 -46 12 -30 0 -60
-6 -67 -12 -11 -10 -13 -10 -7 0 5 9 -6 12 -46 12 -30 0 -60 -6 -67 -12 -11
-10 -13 -10 -7 0 5 9 -6 12 -46 12 -30 0 -60 -6 -67 -12 -11 -10 -13 -10 -7 0
5 9 -6 12 -46 12 -30 0 -60 -6 -67 -12 -11 -10 -13 -10 -7 0 5 9 -6 12 -46 12
-30 0 -60 -6 -67 -12 -11 -10 -13 -10 -7 0 5 9 -6 12 -46 12 -30 0 -60 -6 -67
-12 -11 -10 -13 -10 -7 0 9 15 -100 17 -109 2 -5 -8 -11 -8 -20 0 -8 6 -15 7
-17 1z"/>
</g>
</svg>
